<?xml version="1.0" encoding="utf-8"?>
<!-- Generator: Adobe Illustrator 19.2.1, SVG Export Plug-In . SVG Version: 6.00 Build 0)  -->
<!DOCTYPE svg PUBLIC "-//W3C//DTD SVG 1.1//EN" "http://www.w3.org/Graphics/SVG/1.1/DTD/svg11.dtd">
<svg version="1.1" id="Layer_1" xmlns="http://www.w3.org/2000/svg" xmlns:xlink="http://www.w3.org/1999/xlink" x="0px" y="0px"
	 viewBox="0 0 267.8 49.4" style="enable-background:new 0 0 267.8 49.4;" xml:space="preserve">
<style type="text/css">
	.st0{fill:#F00328;}
</style>
<g>
	<g>
		<path class="st0" d="M35.7,0.9c0,0-2.6-0.5-4.6-0.5s-4.6,0.5-4.6,0.5v21.5c0,0.1,0,0.2,0,0.3l-6.2,17.5c-0.1,0.2-0.2,0.4-0.5,0.4
			h-4c-0.2,0-0.4-0.2-0.4-0.4L9.2,22.7c0-0.1,0-0.2,0-0.3V0.9c0,0-2.6-0.5-4.6-0.5S0,0.9,0,0.9V23c0,0.5,0,1.1,0.2,1.6L8.6,47
			c0.2,0.6,0.7,1.2,0.8,1.2c0.6,0.6,1.5,1.1,2.4,1.1h11.7c1.7-0.1,2.6-1,2.6-1.1c0.4-0.4,0.6-0.8,0.8-1.3l8.5-22.4
			c0.2-0.5,0.3-1.1,0.2-1.6L35.7,0.9L35.7,0.9z"/>
		<path class="st0" d="M100.5,40L100.5,40c-0.6,0-1.2-0.5-1.2-1.2v-38c0,0-2.5-0.6-4.6-0.6c-2,0-4.6,0.5-4.6,0.5v41.4
			c0.3,4.1,4.1,7,6.8,7h21.9c0,0,0.5-2.5,0.5-4.6c0-2-0.5-4.7-0.5-4.7h-18.3V40z"/>
		<path class="st0" d="M80.7,0.9c0,0-2.6-0.5-4.6-0.6c-2,0-4.6,0.5-4.6,0.5v34.5c0,0.6-0.2,1.1-0.6,1.6L68,39.8
			c-0.4,0.4-0.9,0.7-1.6,0.7H59c-0.6,0-1.1-0.2-1.5-0.7l-2.9-2.9c-0.4-0.4-0.7-1-0.7-1.6V0.9c0,0-2.5-0.5-4.6-0.6
			c-2,0-4.6,0.5-4.6,0.5v37.8c0,1.2,0.5,2.3,1.3,3.2l6,6c0.9,0.9,1.9,1.3,3.2,1.3H70c1.2,0,2.3-0.4,3.2-1.3l6.1-6l0,0
			c0.9-0.9,1.3-2,1.3-3.2L80.7,0.9L80.7,0.9z"/>
		<path class="st0" d="M161.5,9V0.9c0,0-2.5-0.6-4.5-0.6s-4.6,0.6-4.6,0.6v7.9L142,20h-6.1V0.9c0,0-2.5-0.6-4.6-0.6
			c-2,0-4.6,0.5-4.6,0.5v47.8c0,0,2.5,0.6,4.6,0.6c2,0,4.6-0.5,4.6-0.5V29.2h6.2l10.4,11.2v8.3c0,0,2.6,0.5,4.6,0.5
			c2.1,0,4.5-0.7,4.5-0.7v-8.3c-0.1-1.8-0.7-3.4-1.8-4.7l0,0l0,0l-10.4-10.9l10.2-11C160.7,12.4,161.4,10.7,161.5,9"/>
		<path class="st0" d="M250.5,0c-2,0-4.7,0.5-4.7,0.5v29.6L225.6,1.8C225,0.7,223.1,0,221.1,0c-2.1,0-4.2,0.5-4.2,0.5v47.8
			c0,0,2.4,0.6,4.4,0.6s4.7-0.5,4.7-0.5v-30l20.2,28.3c0.9,1.3,3,2.2,4.9,2.2s3.8-0.5,3.8-0.5V0.5C255,0.5,252.4,0,250.5,0"/>
		<path class="st0" d="M197.3,30.5H180v-3.2c0-0.1,0-0.2,0-0.3l6.2-17.9c0.1-0.2,0.2-0.4,0.5-0.4h4c0.2,0,0.4,0.2,0.4,0.4l6.2,17.9
			c0,0.1,0,0.2,0,0.3L197.3,30.5L197.3,30.5z M197.8,2.6c-0.2-0.6-0.7-1.2-0.8-1.2c-0.6-0.6-1.5-1.1-2.4-1.1h-11.7
			c-1.7,0.1-2.6,1-2.6,1.1c-0.4,0.4-0.6,0.8-0.8,1.3l-8.4,22.5c-0.2,0.5-0.2,1-0.2,1.6v22.1c0,0,2.6,0.5,4.6,0.5s4.6-0.5,4.6-0.5v-9
			h17.3v9c0,0,2.6,0.5,4.6,0.5s4.6-0.5,4.6-0.5V26.7c0-0.5,0-1.1-0.2-1.6C206.2,25.1,197.8,2.6,197.8,2.6"/>
	</g>
	<path class="st0" d="M264.7,0l1,2.8l1-2.8h1.1v3.9h-0.7V0.7L266,3.8h-0.6l-1.1-3.1v3.1h-0.7V0H264.7z M259.7,0.6V0h3.3v0.6h-1.3
		v3.2h-0.8V0.6H259.7z"/>
</g>
</svg>
